<svg width="25" height="25" viewBox="0 0 25 25" fill="none" xmlns="http://www.w3.org/2000/svg">
<path d="M16.4028 2.86029C12.6556 -0.95343 6.55688 -0.95343 2.80974 2.86029C-0.936581 6.67484 -0.936581 12.8811 2.80974 16.6957C5.85548 19.7948 10.4509 20.3683 14.0772 18.4287C14.5721 18.164 15.2442 18.4399 15.6376 18.8402L21.0946 24.3942C21.8898 25.2019 23.1749 25.2019 23.9661 24.3942C24.7605 23.5857 24.7605 22.2778 23.9661 21.4717L18.509 15.9161C18.1148 15.5159 17.8366 14.8479 18.0955 14.3494C20.0149 10.6551 19.4547 5.96727 16.4028 2.86029ZM14.6799 14.9422C11.8823 17.7894 7.32937 17.7894 4.53263 14.9422C1.7367 12.0949 1.7367 7.46189 4.53263 4.61462C7.32937 1.76818 11.8823 1.76818 14.6799 4.61462C17.4774 7.46189 17.4774 12.0949 14.6799 14.9422Z" fill="#31B6B6"/>
</svg>
