<svg width="27" height="26" viewBox="0 0 27 26" fill="none" xmlns="http://www.w3.org/2000/svg">
<path fill-rule="evenodd" clip-rule="evenodd" d="M22.956 8.55404H24.3103C25.4064 8.55404 26.2981 9.4564 26.2981 10.5655V11.7149C26.2981 12.7654 25.4981 13.6305 24.4822 13.719L23.0908 23.5749C22.912 24.8408 21.8243 25.7954 20.5607 25.7954H6.15935C4.9048 25.7954 3.84461 24.8865 3.63831 23.6344L2.00545 13.7204C0.981394 13.6402 0.172363 12.7714 0.172363 11.7149V10.5655C0.172363 9.4564 1.06411 8.55404 2.16022 8.55404H3.51447L3.52452 8.54252L3.52453 8.5425C3.53135 8.5346 3.53816 8.52671 3.5456 8.51918L10.929 1.0479C11.2617 0.711246 11.8011 0.711246 12.1338 1.0479C12.4665 1.38456 12.4665 1.93038 12.1338 2.26704L5.92074 8.55399H20.5497L14.3367 2.26704C14.004 1.93038 14.004 1.38456 14.3367 1.0479C14.6694 0.711246 15.2089 0.711246 15.5415 1.0479L22.9248 8.51918C22.9324 8.52682 22.9394 8.53488 22.9463 8.54294L22.9464 8.54301L22.956 8.55404ZM24.3103 12.0023C24.4669 12.0023 24.5943 11.8734 24.5943 11.7149V10.5655C24.5943 10.4071 24.4669 10.2782 24.3103 10.2782H2.16022C2.00367 10.2782 1.87625 10.407 1.87625 10.5655V11.7149C1.87625 11.8734 2.00362 12.0023 2.16022 12.0023H10.6795C11.15 12.0023 11.5314 12.3883 11.5314 12.8644C11.5314 13.3405 11.1499 13.7265 10.6795 13.7265H3.73383L5.31898 23.3509C5.38777 23.7684 5.74118 24.0713 6.15935 24.0713H20.5607C20.982 24.0713 21.3445 23.7531 21.4041 23.3312L22.7601 13.7265H15.7911C15.3206 13.7265 14.9391 13.3404 14.9391 12.8644C14.9391 12.3882 15.3206 12.0023 15.7911 12.0023H24.3103ZM7.27167 16.3126C7.27167 15.8365 7.65314 15.4506 8.12361 15.4506C8.59413 15.4506 8.97556 15.8365 8.97556 16.3126V21.4851C8.97556 21.9612 8.59413 22.3472 8.12361 22.3472C7.65309 22.3472 7.27167 21.9611 7.27167 21.4851V16.3126ZM13.2352 15.4506C12.7647 15.4506 12.3833 15.8365 12.3833 16.3126V21.4851C12.3833 21.9611 12.7647 22.3472 13.2352 22.3472C13.7057 22.3472 14.0871 21.9612 14.0871 21.4851V16.3126C14.0871 15.8365 13.7057 15.4506 13.2352 15.4506ZM17.4948 16.3126C17.4948 15.8365 17.8762 15.4506 18.3467 15.4506C18.8172 15.4506 19.1986 15.8365 19.1986 16.3126V21.4851C19.1986 21.9612 18.8172 22.3472 18.3467 22.3472C17.8762 22.3472 17.4948 21.9611 17.4948 21.4851V16.3126Z" fill="white"/>
</svg>
