<svg xmlns="http://www.w3.org/2000/svg" viewBox="0 0 52.32 9.74"><defs><style>.cls-1{fill:#fff;}</style></defs><g id="Camada_2" data-name="Camada 2"><g id="Camada_1-2" data-name="Camada 1"><path class="cls-1" d="M1.37,10.2V1.8h.89V9.43H7v.77Z" transform="translate(-1.37 -0.56)"/><path class="cls-1" d="M10.93,10.26A3.6,3.6,0,0,1,9.2,9.85,3.1,3.1,0,0,1,8,8.71,3.29,3.29,0,0,1,7.62,7,3.3,3.3,0,0,1,8,5.39a3.16,3.16,0,0,1,4.26-1.15,3,3,0,0,1,1.09,1.13A3.46,3.46,0,0,1,13.76,7v.13a.61.61,0,0,0,0,.14H8.27V6.67h5L13,6.92a2.52,2.52,0,0,0-.29-1.21,2.23,2.23,0,0,0-.8-.84,2.41,2.41,0,0,0-2.33,0,2.09,2.09,0,0,0-.8.84A2.5,2.5,0,0,0,8.45,7v.13a2.42,2.42,0,0,0,.32,1.27,2.25,2.25,0,0,0,.88.85A2.78,2.78,0,0,0,11,9.5,2.72,2.72,0,0,0,12,9.3a2.29,2.29,0,0,0,.86-.62l.48.55a2.81,2.81,0,0,1-1,.77A3.66,3.66,0,0,1,10.93,10.26Z" transform="translate(-1.37 -0.56)"/><path class="cls-1" d="M15.94,2.51a.61.61,0,0,1-.45-.18.6.6,0,0,1-.18-.43.58.58,0,0,1,.18-.43.6.6,0,0,1,.45-.17.63.63,0,0,1,.44.16.58.58,0,0,1,.18.42.64.64,0,0,1-.17.45A.61.61,0,0,1,15.94,2.51ZM15.5,10.2V3.9h.86v6.3Z" transform="translate(-1.37 -0.56)"/><path class="cls-1" d="M20.51,10.26A3.1,3.1,0,0,1,19.28,10a1.87,1.87,0,0,1-.8-.65,1.74,1.74,0,0,1-.28-1,1.72,1.72,0,0,1,.24-.89,1.63,1.63,0,0,1,.77-.65,3.51,3.51,0,0,1,1.43-.24h2.17v.63H20.66a1.85,1.85,0,0,0-1.26.33,1.08,1.08,0,0,0,.06,1.66,1.88,1.88,0,0,0,1.18.33,2.27,2.27,0,0,0,1.24-.33,1.88,1.88,0,0,0,.76-1l.2.59a2,2,0,0,1-.84,1A2.72,2.72,0,0,1,20.51,10.26Zm2.17-.06V8.81l0-.23V6.25A1.62,1.62,0,0,0,22.19,5a1.84,1.84,0,0,0-1.33-.44,3.28,3.28,0,0,0-1.17.21,2.65,2.65,0,0,0-.93.54l-.39-.64a3.55,3.55,0,0,1,1.15-.63,4.44,4.44,0,0,1,1.42-.22,2.67,2.67,0,0,1,1.89.61,2.37,2.37,0,0,1,.67,1.84V10.2Z" transform="translate(-1.37 -0.56)"/><path class="cls-1" d="M25.48,10.2V1.8h1.95L30.9,7.51h-1L33.26,1.8h2v8.4H33.05l0-5.08h.38L30.86,9.37H29.81L27.2,5.12h.46V10.2Z" transform="translate(-1.37 -0.56)"/><path class="cls-1" d="M38.87,10.31A3,3,0,0,1,37.55,10a1.81,1.81,0,0,1-.82-.72,1.9,1.9,0,0,1,0-2.05,1.93,1.93,0,0,1,1-.68,5,5,0,0,1,1.64-.23h1.53v1.2H39.65a1.36,1.36,0,0,0-.78.17.61.61,0,0,0,0,.95.92.92,0,0,0,.62.19,1.23,1.23,0,0,0,.69-.19,1,1,0,0,0,.44-.57l.31.84a1.68,1.68,0,0,1-.7,1A2.52,2.52,0,0,1,38.87,10.31Zm1.92-.11V9l-.16-.3V6.46a1.08,1.08,0,0,0-.33-.84,1.59,1.59,0,0,0-1-.29,3.19,3.19,0,0,0-1,.15,3,3,0,0,0-.82.4l-.76-1.54a4.63,4.63,0,0,1,1.33-.56,5.82,5.82,0,0,1,1.54-.2A3.69,3.69,0,0,1,42,4.31a2.82,2.82,0,0,1,.87,2.28V10.2Z" transform="translate(-1.37 -0.56)"/><path class="cls-1" d="M45.49,3a1.44,1.44,0,0,1-1-.35,1.14,1.14,0,0,1-.38-.87,1.09,1.09,0,0,1,.38-.85,1.44,1.44,0,0,1,1-.35,1.5,1.5,0,0,1,1,.33,1,1,0,0,1,.38.83,1.19,1.19,0,0,1-.37.9A1.43,1.43,0,0,1,45.49,3ZM44.35,10.2V3.68h2.28V10.2Z" transform="translate(-1.37 -0.56)"/><path class="cls-1" d="M50.47,10.31a7.16,7.16,0,0,1-1.61-.19,4.69,4.69,0,0,1-1.27-.48l.67-1.56a4.78,4.78,0,0,0,1.08.44,4.63,4.63,0,0,0,1.2.17,1.67,1.67,0,0,0,.8-.13.37.37,0,0,0,.22-.34.3.3,0,0,0-.2-.28,1.78,1.78,0,0,0-.55-.13l-.75-.1a6.81,6.81,0,0,1-.83-.17,2.85,2.85,0,0,1-.76-.32,1.46,1.46,0,0,1-.54-.56,1.78,1.78,0,0,1-.21-.91,1.75,1.75,0,0,1,.37-1.11,2.47,2.47,0,0,1,1.07-.78,4.57,4.57,0,0,1,1.73-.28,6.62,6.62,0,0,1,1.39.14,4.17,4.17,0,0,1,1.18.42L52.77,5.7a2.87,2.87,0,0,0-1-.38,4.11,4.11,0,0,0-.89-.1,1.87,1.87,0,0,0-.83.13.36.36,0,0,0-.24.31.33.33,0,0,0,.21.3,1.89,1.89,0,0,0,.56.15c.22,0,.47.08.75.11a7.91,7.91,0,0,1,.82.16,2.9,2.9,0,0,1,.74.32,1.67,1.67,0,0,1,.55.57,1.75,1.75,0,0,1,.21.91,1.73,1.73,0,0,1-.36,1.07,2.43,2.43,0,0,1-1.08.77A4.88,4.88,0,0,1,50.47,10.31Z" transform="translate(-1.37 -0.56)"/></g></g></svg>