<svg width="26" height="18" viewBox="0 0 26 18" fill="none" xmlns="http://www.w3.org/2000/svg">
<path fill-rule="evenodd" clip-rule="evenodd" d="M23.9687 0.40271H1.05204C0.476746 0.40271 0.010376 0.874632 0.010376 1.45678C0.010376 2.03892 0.476746 2.51084 1.05204 2.51084H23.9687C24.544 2.51084 25.0104 2.03892 25.0104 1.45678C25.0104 0.874632 24.544 0.40271 23.9687 0.40271ZM23.9687 7.78104H1.05204C0.476746 7.78104 0.010376 8.25297 0.010376 8.83511C0.010376 9.41726 0.476746 9.88918 1.05204 9.88918H23.9687C24.544 9.88918 25.0104 9.41726 25.0104 8.83511C25.0104 8.25297 24.544 7.78104 23.9687 7.78104ZM1.05204 15.1595H23.9687C24.544 15.1595 25.0104 15.6315 25.0104 16.2136C25.0104 16.7958 24.544 17.2677 23.9687 17.2677H1.05204C0.476746 17.2677 0.010376 16.7958 0.010376 16.2136C0.010376 15.6315 0.476746 15.1595 1.05204 15.1595Z" fill="white"/>
</svg>
